<?xml version="1.0" encoding="utf-8"?>
<!-- Generator: Adobe Illustrator 27.0.0, SVG Export Plug-In . SVG Version: 6.00 Build 0)  -->
<svg version="1.1" id="Layer_1" xmlns="http://www.w3.org/2000/svg" xmlns:xlink="http://www.w3.org/1999/xlink" x="0px" y="0px"
	 viewBox="0 0 371.8 375.1" style="enable-background:new 0 0 371.8 375.1;" xml:space="preserve">
<style type="text/css">
	.st0{fill:#6B00D1;}
	.st1{fill:#FFFFFF;}
	.st2{fill:#00F159;}
</style>
<g>
	<g>
		<circle class="st0" cx="185.9" cy="192.9" r="171.8"/>
		<circle class="st1" cx="185.9" cy="182" r="171.5"/>
	</g>
	<g>
		<path class="st2" d="M244.5,208.3c-5-13.2-14.4-22.8-27.2-27.6l-1.8-0.7l4.2-3.1c15.2-11.3,28.7-25.9,39-42.2l2.6-4.1l0.6,1.5
			c5,13.2,14.4,22.8,27.2,27.6l1.8,0.7l-4.2,3.1c-15.2,11.3-28.7,25.9-39,42.2l-2.6,4.1L244.5,208.3z"/>
		<path class="st0" d="M185.6,185l61.5,73.9l-38.8,6.5c-10,1.6-20.3-2.5-26.6-10.8l-44.2-51.9l-4.3,23.8
			c-1.8,11.2-10.5,19.8-21.7,21.6L81,253l18.8-116.9c1.8-11.4,10.7-20.1,22.2-21.8l31-4.5l-9.3,58.5l36.8-54.1
			c4-6.4,10.7-10.8,18.3-11.9l46.5-7.6L185.6,185z"/>
	</g>
</g>
</svg>
