<?xml version="1.0" encoding="utf-8"?>
<!-- Generator: Adobe Illustrator 24.0.0, SVG Export Plug-In . SVG Version: 6.00 Build 0)  -->
<svg version="1.1" id="Layer_1" xmlns="http://www.w3.org/2000/svg" xmlns:xlink="http://www.w3.org/1999/xlink" x="0px" y="0px"
	 viewBox="0 0 628 512" style="enable-background:new 0 0 628 512;" xml:space="preserve">
<style type="text/css">
	.st0{fill:#FFFFFF;}
	.st1{fill:#00F159;}
	.st2{fill:#6B00D1;}
</style>
<g>
	<path class="st1" d="M489.39,340.2c-14.87-39.65-42.99-68.21-81.32-82.57l-5.34-2l12.58-9.32c45.6-33.77,85.94-77.46,116.66-126.33
		l7.79-12.39l1.73,4.61c14.86,39.65,42.98,68.21,81.31,82.57l5.35,2.01l-12.58,9.32c-45.6,33.77-85.94,77.45-116.66,126.33
		l-7.79,12.39L489.39,340.2z"/>
	<path class="st2" d="M313.13,270.47l184.07,221.1L381.1,510.95c-30.06,4.9-60.8-7.61-79.49-32.34L169.38,323.17l-12.95,71.33
		c-5.52,33.49-31.5,59.36-65.03,64.76L-0.14,474L56.18,124.1c5.49-34.07,32.14-60.29,66.32-65.24l92.7-13.44l-27.75,175.17
		L297.48,58.52c12.1-19.28,31.98-32.27,54.67-35.73L491.27,0L313.13,270.47z"/>
</g>
</svg>
